<?xml version="1.0" encoding="utf-8"?>
<!-- Generator: Adobe Illustrator 23.0.2, SVG Export Plug-In . SVG Version: 6.00 Build 0)  -->
<svg version="1.1" id="Calque_1" xmlns="http://www.w3.org/2000/svg" xmlns:xlink="http://www.w3.org/1999/xlink" x="0px" y="0px"
	 viewBox="0 0 500 500" style="enable-background:new 0 0 500 500;" xml:space="preserve">
<style type="text/css">
	.st0{fill:#F2F2F2;}
	.st1{fill:#DB4D61;}
	.st2{fill:#E37483;}
	.st3{fill:#FFFFFF;}
	.st4{fill:#9BB4FE;}
	.st5{fill:#4546CF;}
	.st6{fill:#2122C3;}
	.st7{fill:#817E94;}
	.st8{fill:#6F6A7B;}
	.st9{fill:#1989E4;}
	.st10{fill:#2ABBFF;}
	.st11{fill:#7C8CC7;}
</style>
<g>
	<ellipse class="st0" cx="250.3" cy="455.7" rx="245.7" ry="15.1"/>
	<g>
		<g>
			<path class="st1" d="M401.1,455.7H253.8V348.6h147.3c4.5,0,8.2,3.7,8.2,8.2v90.7C409.3,452,405.6,455.7,401.1,455.7z"/>
			<path class="st2" d="M277.3,363.2v77.9c0,8-6.5,14.6-14.6,14.6H42.5c-2.3,0-4.2-1.9-4.2-4.2l0,0c0-2.3,1.9-4.2,4.2-4.2h211.9V357
				H42.5c-2.3,0-4.2-1.9-4.2-4.2l0,0c0-2.3,1.9-4.2,4.2-4.2h220.3C270.8,348.6,277.3,355.2,277.3,363.2z"/>
			<g>
				<path class="st3" d="M267.6,364.9V440c0,0.7-0.1,1.3-0.2,1.9c-0.2,0.9-0.6,1.8-1.2,2.5c-1.4,2-3.6,3.2-6.2,3.2H43v-90.3H260
					c2.6,0,4.8,1.3,6.2,3.2c0.5,0.7,0.9,1.6,1.2,2.5C267.6,363.6,267.6,364.2,267.6,364.9z"/>
				<g>
					<path class="st4" d="M267.4,363H43v-2.5h223.3C266.8,361.2,267.2,362.1,267.4,363z"/>
					<rect x="43" y="367.9" class="st4" width="224.7" height="2.5"/>
					<rect x="43" y="375.3" class="st4" width="224.7" height="2.5"/>
					<rect x="43" y="382.7" class="st4" width="224.7" height="2.5"/>
					<rect x="43" y="390.1" class="st4" width="224.7" height="2.5"/>
					<rect x="43" y="397.5" class="st4" width="224.7" height="2.5"/>
					<rect x="43" y="404.9" class="st4" width="224.7" height="2.5"/>
					<rect x="43" y="412.3" class="st4" width="224.7" height="2.5"/>
					<rect x="43" y="419.7" class="st4" width="224.7" height="2.5"/>
					<rect x="43" y="427" class="st4" width="224.7" height="2.5"/>
					<rect x="43" y="434.5" class="st4" width="224.7" height="2.5"/>
					<path class="st4" d="M267.4,441.8c-0.2,0.9-0.6,1.8-1.2,2.5H43v-2.5H267.4z"/>
				</g>
			</g>
			<path class="st2" d="M309.8,447.3h-17.9c-1.2,0-2.2-1-2.2-2.2V363c0-1.2,1-2.2,2.2-2.2h17.9c1.2,0,2.2,1,2.2,2.2v82.1
				C312,446.3,311,447.3,309.8,447.3z"/>
		</g>
		<g>
			<path class="st5" d="M390.1,272.2H288.3V213h101.7c4.5,0,8.2,3.7,8.2,8.2v42.8C398.3,268.6,394.6,272.2,390.1,272.2z"/>
			<path class="st6" d="M301.4,221.1v43.1c0,4.4-3.6,8.1-8.1,8.1H108.3c-1.3,0-2.3-1-2.3-2.3l0,0c0-1.3,1-2.3,2.3-2.3h180.5v-49.9
				H108.3c-1.3,0-2.3-1-2.3-2.3l0,0c0-1.3,1-2.3,2.3-2.3h185.1C297.8,213,301.4,216.7,301.4,221.1z"/>
			<g>
				<path class="st3" d="M296,222v41.5c0,0.4,0,0.7-0.1,1c-0.1,0.5-0.3,1-0.6,1.4c-0.8,1.1-2,1.8-3.4,1.8H108.5v-49.9h183.3
					c1.4,0,2.7,0.7,3.4,1.8c0.3,0.4,0.5,0.9,0.6,1.4C296,221.3,296,221.7,296,222z"/>
				<g>
					<path class="st4" d="M295.9,221H108.5v-1.4h186.7C295.5,220,295.8,220.5,295.9,221z"/>
					<rect x="108.5" y="223.7" class="st4" width="187.5" height="1.4"/>
					<rect x="108.5" y="227.8" class="st4" width="187.5" height="1.4"/>
					<rect x="108.5" y="231.9" class="st4" width="187.5" height="1.4"/>
					<rect x="108.5" y="236" class="st4" width="187.5" height="1.4"/>
					<rect x="108.5" y="240" class="st4" width="187.5" height="1.4"/>
					<rect x="108.5" y="244.1" class="st4" width="187.5" height="1.4"/>
					<rect x="108.5" y="248.2" class="st4" width="187.5" height="1.4"/>
					<rect x="108.5" y="252.3" class="st4" width="187.5" height="1.4"/>
					<rect x="108.5" y="256.4" class="st4" width="187.5" height="1.4"/>
					<rect x="108.5" y="260.5" class="st4" width="187.5" height="1.4"/>
					<path class="st4" d="M295.9,264.6c-0.1,0.5-0.3,1-0.6,1.4H108.5v-1.4H295.9z"/>
				</g>
			</g>
			<path class="st6" d="M318.3,267.6h-7.9c-1.2,0-2.2-1-2.2-2.2V222c0-1.2,1-2.2,2.2-2.2h7.9c1.2,0,2.2,1,2.2,2.2v43.4
				C320.5,266.6,319.6,267.6,318.3,267.6z"/>
		</g>
		<g>
			<path class="st7" d="M479.9,110.7H334.1v-83h145.9c4.5,0,8.2,3.7,8.2,8.2v66.6C488.1,107.1,484.5,110.7,479.9,110.7z"/>
			<path class="st8" d="M352.3,39.1v60.4c0,6.2-5.1,11.3-11.3,11.3H81.6c-1.8,0-3.2-1.5-3.2-3.2l0,0c0-1.8,1.5-3.2,3.2-3.2h252.9
				v-70H81.6c-1.8,0-3.2-1.5-3.2-3.2l0,0c0-1.8,1.5-3.2,3.2-3.2H341C347.3,27.8,352.3,32.8,352.3,39.1z"/>
			<g>
				<path class="st3" d="M344.8,40.3v58.2c0,0.5-0.1,1-0.2,1.5c-0.2,0.7-0.5,1.4-0.9,1.9c-1.1,1.5-2.8,2.5-4.8,2.5H82v-70h256.9
					c2,0,3.8,1,4.8,2.5c0.4,0.6,0.7,1.2,0.9,1.9C344.8,39.3,344.8,39.8,344.8,40.3z"/>
				<g>
					<path class="st4" d="M344.6,38.9H82V37h261.7C344.2,37.5,344.5,38.2,344.6,38.9z"/>
					<rect x="82" y="42.7" class="st4" width="262.8" height="1.9"/>
					<rect x="82" y="48.4" class="st4" width="262.8" height="1.9"/>
					<rect x="82" y="54.1" class="st4" width="262.8" height="1.9"/>
					<rect x="82" y="59.9" class="st4" width="262.8" height="1.9"/>
					<rect x="82" y="65.6" class="st4" width="262.8" height="1.9"/>
					<rect x="82" y="71.3" class="st4" width="262.8" height="1.9"/>
					<rect x="82" y="77.1" class="st4" width="262.8" height="1.9"/>
					<rect x="82" y="82.8" class="st4" width="262.8" height="1.9"/>
					<rect x="82" y="88.5" class="st4" width="262.8" height="1.9"/>
					<rect x="82" y="94.3" class="st4" width="262.8" height="1.9"/>
					<path class="st4" d="M344.6,100c-0.2,0.7-0.5,1.4-0.9,1.9H82V100H344.6z"/>
				</g>
			</g>
			<path class="st8" d="M377,104.2h-12.9c-1.2,0-2.2-1-2.2-2.2V39.4c0-1.2,1-2.2,2.2-2.2H377c1.2,0,2.2,1,2.2,2.2V102
				C379.2,103.3,378.2,104.2,377,104.2z"/>
		</g>
		<g>
			<path class="st9" d="M286.6,348H128.9c-1.7,0-3.1-1.4-3.1-3.1v-32.3c0-1.7,1.4-3.1,3.1-3.1h157.7V348z"/>
			<path class="st10" d="M286.6,314.2v29.2h154.1v4.7h-155c-3.2,0-5.7-2.6-5.7-5.7v-27c0-3.2,2.6-5.7,5.7-5.7h155v4.7H286.6z"/>
			<g>
				<rect x="286.6" y="314.2" class="st3" width="154.1" height="29.2"/>
				<rect x="286.6" y="316.4" class="st4" width="154.1" height="2.5"/>
				<rect x="286.6" y="323.8" class="st4" width="154.1" height="2.5"/>
				<rect x="286.6" y="331.2" class="st4" width="154.1" height="2.5"/>
				<rect x="286.6" y="338.6" class="st4" width="154.1" height="2.5"/>
			</g>
		</g>
		<g>
			<path class="st9" d="M224.6,161.9H14.2c-1.7,0-3.1-1.4-3.1-3.1v-45c0-1.7,1.4-3.1,3.1-3.1h210.4V161.9z"/>
			<path class="st10" d="M224.6,117v38.7h204.7v6.2H223.4c-4.2,0-7.6-3.4-7.6-7.6v-35.9c0-4.2,3.4-7.6,7.6-7.6h205.9v6.2H224.6z"/>
			<g>
				<rect x="224.6" y="117" class="st3" width="204.7" height="38.7"/>
				<rect x="224.6" y="119.9" class="st4" width="204.7" height="3.3"/>
				<rect x="224.6" y="129.8" class="st4" width="204.7" height="3.3"/>
				<rect x="224.6" y="139.6" class="st4" width="204.7" height="3.3"/>
				<rect x="224.6" y="149.4" class="st4" width="204.7" height="3.3"/>
			</g>
		</g>
		<g>
			<path class="st11" d="M235.5,310.7h157.7c1.7,0,3.1-1.4,3.1-3.1v-32.3c0-1.7-1.4-3.1-3.1-3.1H235.5V310.7z"/>
			<path class="st4" d="M235.5,276.9V306H81.4v4.7h155c3.2,0,5.7-2.6,5.7-5.7v-27c0-3.2-2.6-5.7-5.7-5.7h-155v4.7H235.5z"/>
			<g>
				<rect x="81.4" y="276.9" class="st3" width="154.1" height="29.2"/>
				<rect x="81.4" y="279.1" class="st4" width="154.1" height="2.5"/>
				<rect x="81.4" y="286.5" class="st4" width="154.1" height="2.5"/>
				<rect x="81.4" y="293.9" class="st4" width="154.1" height="2.5"/>
				<rect x="81.4" y="301.3" class="st4" width="154.1" height="2.5"/>
			</g>
		</g>
		<g>
			<path class="st1" d="M282.2,213.3h210c1.7,0,3.1-1.4,3.1-3.1v-44.8c0-1.7-1.4-3.1-3.1-3.1h-210V213.3z"/>
			<path class="st2" d="M282.2,168.4v38.6H78v6.2h205.4c4.2,0,7.6-3.4,7.6-7.6v-35.8c0-4.2-3.4-7.6-7.6-7.6H78v6.2H282.2z"/>
			<g>
				<rect x="78" y="168.4" class="st3" width="204.2" height="38.6"/>
				<rect x="78" y="171.4" class="st4" width="204.2" height="3.3"/>
				<rect x="78" y="181.2" class="st4" width="204.2" height="3.3"/>
				<rect x="78" y="191" class="st4" width="204.2" height="3.3"/>
				<rect x="78" y="200.8" class="st4" width="204.2" height="3.3"/>
			</g>
		</g>
	</g>
</g>
</svg>
