<?xml version="1.0" encoding="utf-8"?>
<!-- Generator: Adobe Illustrator 23.0.2, SVG Export Plug-In . SVG Version: 6.00 Build 0)  -->
<svg version="1.1" id="Calque_1" xmlns="http://www.w3.org/2000/svg" xmlns:xlink="http://www.w3.org/1999/xlink" x="0px" y="0px"
	 viewBox="0 0 500 500" style="enable-background:new 0 0 500 500;" xml:space="preserve">
<style type="text/css">
	.st0{fill:#E7B3B7;}
	.st1{fill:#DB4D61;}
	.st2{fill:#2ABBFF;}
	.st3{fill:#E37483;}
</style>
<g>
	<g>
		<g>
			<path class="st0" d="M245.2,136.1c28.6-10.9,2.8-23.6-15.1-28.7c-14.5-4.1-50.9-10.8-36.1-35.6c15.5-26,30.3,6.1,42.6,9.7
				c27.5,8.1-1.1-26.4-7.9-35.6c-9.4-12.6-29-38.3-4.7-42.6c19.7-3.5,40,23.9,48.2,37.6c5.8,9.7,20.1,55.3,35,45.2
				c11.3-7.6-0.4-53.3,26.5-20.7c10.9,13.3,9.2,34.6,14.1,49.7c7.2,22.2,10.3,31.4,30,25.7c10.2-3,10.6-15.8,23.2-7.1
				c6.5,4.5,8.4,25,8.4,32.1c-0.5,65.5-26.7,109.3-39,115c-16.7,7.7-47.8-3.4-62.1-11.6c-7.1-4.1-20.1-10.8-19.2-21.2
				c1-11.6,19-9.9,19.6-16.8c1.9-19.4-33.7-0.9-43.6-3.6c-12.8-3.6-33.9-26.4-20.5-38.4c1.4-1.2,57-5.3,25.2-23
				c-17.6-9.8-36.5,17.4-53.5-1.9C191.5,136.5,234.4,140.1,245.2,136.1z"/>
		</g>
		<path class="st1" d="M249.9,146.4c12.3-5.2,25-9.9,38.4-11c-9.4-11.8-19.3-23.4-26.4-36.5c-2-3.7,4-6.2,6-2.6
			c0.9,1.6,1.8,3.1,2.8,4.7c1-4-0.2-10-0.6-13.1c-1-8.2-4.1-15.6-7.3-23.2c-1.7-3.9,4.3-6.4,6-2.6c4.2,9.8,7.5,19.1,8.2,29.8
			c0.4,5.3,0.7,11-2.4,15.3c10.1,15,22.7,28.9,33.3,43.4c4.5-7.2,7.8-14.6,9.3-23.1c1.7-9.2,0.5-18.6,1.5-27.9
			c0.4-4.2,6.9-3.4,6.5,0.8c-1.1,11.2,0.2,22.1-2.6,33.1c-2.1,8.3-5.9,15.6-10.6,22.7c12.1,17.5,23.3,35.8,32.5,55
			c3.1,6.4,5.9,12.9,8.6,19.5c6.1-9.1,11.1-18.6,14.6-29.1c2-5.8,4.1-12,4.9-18.1c0.6-4.6,0.1-9,1.9-13.4c1.6-3.9,7.7-1.5,6.1,2.4
			c-2.2,5.4-1.5,12.4-2.9,18.1c-1.4,5.5-3.1,11-5,16.4c-3.9,11-9.7,21-16.4,30.5c-0.1,0.1-0.2,0.2-0.3,0.3
			c4.6,11.3,9,22.7,14.1,33.8c0.4,0.3,0.8,0.7,1,1.3c0.5,1.2,1.5,3,1.8,4.5c9.1,22.9,18.2,45.8,27,68.8c1.5,3.9-4.5,6.5-6,2.6
			c-8.7-22.9-17.8-45.7-26.9-68.5c-0.1-0.1-0.1-0.2-0.2-0.3c-2.9-6-5.6-12.1-8.1-18.2c-11.9,3-25.1-0.5-36.2-4.9
			c-3.9-1.6-1.5-7.6,2.4-6.1c9.6,3.9,20.8,6.9,31.2,4.8c-5.7-14-11.1-28.2-17.6-41.9c-2.6-5.4-5.4-10.8-8.3-16.1
			c-0.2,0.2-0.4,0.3-0.7,0.4c-16.2,6.6-33.7,9.2-51,6.5c-4.1-0.7-3.4-7.1,0.8-6.5c16.3,2.6,32.5,0.2,47.6-6c0,0,0.1,0,0.1,0
			c-8.9-15.6-19-30.5-29.5-45c-1.8-2.5-3.7-4.9-5.6-7.3c-0.4,0.9-1.1,1.6-2.4,1.7c-13,1-25.2,5.6-37.1,10.6
			C248.6,154,246,148,249.9,146.4z"/>
	</g>
	<g>
		<g>
			<g>
				<path class="st2" d="M124.3,222.8c28.9,11.2,58.4,18,85.5,33.8c26,15.1,51.2,32.3,74.9,50.9c21.8,17.1,42.7,35.3,64.5,52.3
					c25.5,19.9,43.5,44,65.4,67.4c3.5,3.8,9.7-1.3,6.1-5.1c-19.8-21.2-36.1-44.1-58.8-62.5c-24.1-19.6-48.2-39.5-72.6-58.7
					c-24.6-19.3-50.9-37.2-78.1-52.8c-26.5-15.2-55.9-21.9-84.2-32.9C122.2,213.4,119.5,220.9,124.3,222.8L124.3,222.8z"/>
			</g>
			<path class="st2" d="M129.5,220.6c-6.2-2.7-17.2-1.7-22.2,3c-5.9,5.5-0.5,10.8,5.9,12.1c7.1,1.4,14.5-1.3,21.4-2.7
				c7.2-1.4,14.9,0.2,21.6-2.2c-4.1-3.2-12-5.2-17-6.5c-5.3-1.4-10.2-4-15.5-5.4"/>
			<path class="st2" d="M142.2,226c-11-3.9-27.2-2.6-34.9-13.3c-5-7-3.3-13.3,5.7-14.1c6.8-0.6,12.3,3.9,16.7,8.6
				c5.5,5.9,12.1,13.4,16.2,20.2"/>
			<path class="st2" d="M172.5,232.8c-4-12.7-8.6-28.9-20.9-36.5c-7.7-4.8-9.1,4.6-7.3,9.9c4.3,12.1,16.2,22.4,26.9,28.9
				L172.5,232.8z"/>
			<path class="st2" d="M201.1,244.9c-2.4-16.1-5-36.4-18.4-48c-8.3-7.2-11.9,3.8-10.6,10.6c2.9,15.5,15.3,30.1,27,39.9L201.1,244.9
				z"/>
			<path class="st2" d="M262,283.2c0.4-16.3,1.5-36.8-9.7-50.5c-7-8.5-12.4,1.7-12.3,8.6c0.2,15.7,9.8,32.3,19.7,44L262,283.2z"/>
			<path class="st2" d="M310.9,321.5c5.6-18.4,13.2-41.4,4.8-60.5c-5.3-11.9-14.6-2-16.7,5.9c-4.8,18,1,39.9,8.6,56.3L310.9,321.5z"
				/>
			<path class="st2" d="M241.7,267.8c-5.3-18-11.4-40.8-28.3-51.7c-10.5-6.8-12.8,6.5-10.3,14c5.7,17.2,22,31.8,36.8,40.9
				L241.7,267.8z"/>
			<path class="st2" d="M170.1,239.5c-11.2,7.2-25.1,16.6-39.5,14.6c-8.9-1.3-4.1-9.4,0.8-12.3c11.1-6.6,26.8-6.9,39.1-4.9
				L170.1,239.5z"/>
			<path class="st2" d="M236.1,264.4c-14.6,4.2-32.8,10-47.8,3.2c-9.3-4.2-1.4-11.5,4.8-13.1c14.2-3.6,31.4,1.2,44.3,7.3
				L236.1,264.4z"/>
			<path class="st2" d="M269.4,296.4c-15.6,4.5-35.1,10.8-51.2,3.4c-10-4.6-1.5-12.4,5.1-14.1c15.2-3.8,33.7,1.2,47.5,7.8
				L269.4,296.4z"/>
			<path class="st2" d="M304.1,322.9c-20.8,5.2-46.9,12.4-68.9,2c-13.7-6.5-2.7-16.4,6.2-18.3c20.3-4.3,45.5,3.3,64.4,12.7
				L304.1,322.9z"/>
			<path class="st2" d="M285.4,302.5c3.6-10,9-18.7,9.3-29.5c0.3-9.4-3.8-18-9.8-25c-2.7-3.1-5.5-7.2-9.9-7.7
				c-6.3-0.7-3.6,6-2.5,10.1c2.5,8.7,4.6,17.7,6.1,26.6c0.9,4.9,1.8,9.5,3,14.1c0.8,3.1,0.8,9.2,2.1,11.3"/>
			<path class="st2" d="M263.7,335.8c11.6,0.1,49.2,3.8,63.6,3.9c3.3,2.6,6.6,5.2,10,7.8c-23.5,5.7-62.3,9.4-72.6,7
				c-4.4-1.1-13.6-4.9-15.2-9.4C246.8,336.9,258.7,335.7,263.7,335.8z"/>
			<path class="st2" d="M297.2,393.2c14-3.1,59.9-9.3,77.2-13.2c4.7,2.2,9.4,4.4,14.2,6.5c-26.6,13.4-71.9,28.8-84.9,28.8
				c-5.6,0-17.7-2-20.8-7C277.2,399.3,291.1,394.5,297.2,393.2z"/>
			<path class="st2" d="M345.5,351.5c1.9-6.3,17.8-24.8,10.9-59c-1-4.8-2.7-11.2-7.9-13.1c-7.2-2.6-7.7,5.4-7.9,10.5
				c-0.4,10,0.9,48.2,0,57.7"/>
			<path class="st2" d="M364.6,368.5c-7,2-14.1,6.4-21.4,8.7c-7.8,2.5-51.2,9.9-64.9,7.1c-5.9-1.2-17.5-0.8-19-8.4
				c-1.4-7.3,7.5-11.9,13.2-13.8c13.3-4.4,76.3,0,92.3,3.4"/>
			<path class="st2" d="M370.4,371c16.5-23.4,23-71.9,19-76.8c-8.7-10.7-19.7,5.9-21.9,14c-4.9,18.1-0.5,60.8,2.6,61.4"/>
		</g>
	</g>
	<g>
		<path class="st3" d="M291.4,406.4c10.9,8.9,24.8,20.2,36.1,28.4c14.7,10.7,14.7,21.3,2,34c-15.6,15.7-43.5,24.3-65,27.7
			c-7.6,1.2-9,0.7-9.2-8c-0.1-6.4,0.7-12.3,0.2-18.8c-1.1-12.4-3.1-23.1-10.4-33.4c-11.5-16.2-12.6,3.9-9.3,13.2
			c3.8,10.8,6.4,22.6,6.5,34.3c0.2,20.2-65.7-10.1-75.4-21.6c7.5-5.7,16.4-29.4,10.5-38.7c-5.2-8.2-7.4,0.8-8.5,6.2
			c-1.3,6.2-1.9,12.1-5.6,17.3c-15.1,21.1-46.7-34.7-52.6-46.2c-7.8-15.1-16.8-17.3-32.5-18c11.2-14.7,27.4-35.8,47.1-36.6
			c9.5-0.4,17.7,6.4,25.2,11.3c5.2,3.4,22.1,12,13.1-0.9c-6.3-9-18.5-11.9-24.7-21.3c5.1-6.3,22.6-18,31.1-16.1
			c10.2,2.3,13.2,22.2,19.7,29.1c7.2-12.2-6.6-24.4-11.4-34.4c13.4-9.6,40.5-21.5,57.9-16.8c25.4,6.8,1.7,39.8-3.1,45.2
			c-3.5,4-9.1,11.3,0.4,8.1c8.3-2.8,19.1-21.2,22.6-29.2c1.7-3.9,2-14.9,5.5-17.4c4.1-2.8,71.7,27.3,79.3,49.7
			C348.8,377.3,311.1,403.4,291.4,406.4z"/>
	</g>
</g>
</svg>
